<svg width="937" height="100" viewBox="0 0 937 100" fill="none" xmlns="http://www.w3.org/2000/svg">
<path d="M1.37088 55.7126C-0.522611 56.7122 -0.444057 58.1761 1.54108 58.9665L7.42286 61.3081C9.40963 62.1019 12.416 61.6688 14.1 60.3465L39.6417 40.0789C41.3208 38.75 41.5008 38.9459 40.0427 40.5169L19.8508 62.2632C18.3878 63.8292 18.8198 65.7526 20.8131 66.5282L21.5021 66.7982C23.4955 67.5738 26.744 68.8764 28.7242 69.6866L35.2476 72.3591C37.2294 73.1693 39.3471 72.2142 39.9101 70.1394L49.8522 33.3686C50.4135 31.2937 49.3236 30.4127 47.4301 31.4106L1.37088 55.7126Z" fill="white"/>
<path d="M17.5124 79.7853C17.3962 80.1361 21.5351 73.7551 21.5351 73.7551C22.7052 71.9569 22.0408 69.8113 20.0638 68.9978L15.5502 67.1387C13.5732 66.3252 12.6257 67.2803 13.4439 69.2679C13.4439 69.2679 17.6319 79.4247 17.5124 79.7853Z" fill="white"/>
<path d="M926.796 60.8754C923.362 59.4642 920.332 59.061 916.696 58.6578C921.746 47.1666 924.978 32.0466 924.978 25.1922C924.978 13.0962 915.08 3.21777 902.96 3.21777C890.84 3.21777 880.942 13.0962 880.942 25.1922C880.942 32.2482 884.174 47.1666 889.224 58.8594C887.002 59.061 882.154 59.8674 880.134 61.077C897.304 60.8754 917.302 60.8754 926.796 60.8754ZM885.588 29.0226C889.83 23.781 899.526 22.9746 904.374 14.3058C905.384 12.4914 907 11.2818 908.818 11.8866C915.686 17.1282 919.928 26.805 920.13 30.4338C917.504 39.7074 909.222 43.1346 902.556 44.1426C902.152 44.1426 901.546 44.7474 901.748 45.3522C901.748 45.957 902.152 46.1586 902.556 46.1586C902.758 46.1586 909.626 45.5538 915.484 41.1186L918.312 43.3362C904.374 69.5442 880.538 42.933 885.588 29.0226Z" fill="white"/>
<path d="M873.872 93.1313L870.64 71.7617C869.428 76.6001 870.236 89.3009 870.64 94.1393C872.054 92.9297 873.67 93.1313 873.872 93.1313Z" fill="white"/>
<path d="M935.482 69.7458L931.846 93.1315H932.452C934.068 93.1315 935.28 93.9379 936.088 95.1475C936.492 89.0995 937.502 75.3907 935.482 69.7458Z" fill="white"/>
<path d="M932.452 95.1473H929.624L934.068 66.3185C934.27 64.5041 932.856 62.6897 931.038 62.6897H874.882C873.064 62.6897 871.448 64.3025 871.852 66.3185L876.296 95.1473H873.468C872.256 95.1473 871.246 96.1553 871.246 97.3649C871.246 98.5745 872.256 99.5825 873.468 99.5825C887.608 99.5825 916.494 99.5825 932.452 99.5825C933.664 99.5825 934.674 98.5745 934.674 97.3649C934.674 96.1553 933.664 95.1473 932.452 95.1473ZM903.566 82.0433C899.728 82.0433 896.698 80.4305 896.698 78.6161C896.698 76.8017 899.728 75.1889 903.566 75.1889C907.404 75.1889 910.434 76.8017 910.434 78.6161C910.434 80.4305 907.202 82.0433 903.566 82.0433Z" fill="white"/>
<path d="M104 91.4999C222.667 23.6666 535.2 -71.3001 836 91.4999" stroke="white" stroke-width="2" stroke-dasharray="10 10"/>
</svg>
